<?xml version="1.0" standalone="no"?>
<!DOCTYPE svg PUBLIC "-//W3C//DTD SVG 1.1//EN" "http://www.w3.org/Graphics/SVG/1.1/DTD/svg11.dtd">
<svg xmlns="http://www.w3.org/2000/svg" width="186" height="51" viewBox="0 0 186 51" fill="none">
<path d="M60.1563 36.8113H55.2031L62.7512 14.9297H68.7126L76.2519 36.8113H71.2987L65.8196 19.9355H65.653L60.1563 36.8113ZM59.8495 28.2112H71.5617V31.8231H59.8495V28.2112Z" fill="#17191C"/>
<path d="M78.6098 36.8103V14.9375H83.1597V23.1606H83.3C83.5016 22.7223 83.7909 22.2664 84.1679 21.8106C84.5448 21.3547 85.0445 20.969 85.667 20.6534C86.2806 20.3465 87.0521 20.1887 87.9726 20.1887C89.1649 20.1887 90.2695 20.5043 91.2864 21.1268C92.2946 21.7492 93.1099 22.6872 93.7148 23.9321C94.3197 25.1857 94.6265 26.7462 94.6265 28.631C94.6265 30.4633 94.3284 32.0062 93.7411 33.2598C93.1537 34.5135 92.3559 35.469 91.3478 36.109C90.3396 36.7577 89.2087 37.0733 87.9638 37.0733C87.0784 37.0733 86.3332 36.9243 85.7108 36.635C85.0971 36.3457 84.5887 35.9775 84.2029 35.5304C83.8084 35.0833 83.5104 34.6362 83.3087 34.1803H83.1071V36.8103H78.6098ZM83.072 28.6135C83.072 29.5866 83.2035 30.437 83.4753 31.1646C83.7471 31.8922 84.1416 32.4533 84.65 32.8566C85.1585 33.2598 85.7897 33.4615 86.5173 33.4615C87.2537 33.4615 87.8849 33.2598 88.3934 32.8478C88.9019 32.4358 89.2964 31.8659 89.5594 31.1383C89.8224 30.4107 89.9626 29.5691 89.9626 28.6135C89.9626 27.6667 89.8311 26.8339 89.5681 26.115C89.3051 25.3961 88.9194 24.8351 88.4022 24.423C87.8937 24.0198 87.2625 23.8181 86.5086 23.8181C85.7722 23.8181 85.141 24.011 84.6325 24.4055C84.124 24.8 83.7295 25.3523 83.4665 26.0712C83.2035 26.79 83.072 27.6316 83.072 28.6135Z" fill="#17191C"/>
<path d="M111.02 25.0803L106.856 25.3345C106.786 24.9751 106.628 24.6595 106.4 24.3702C106.164 24.0809 105.857 23.8529 105.48 23.6776C105.103 23.5023 104.647 23.4146 104.121 23.4146C103.42 23.4146 102.824 23.5636 102.341 23.8617C101.859 24.1598 101.614 24.5543 101.614 25.0452C101.614 25.4397 101.772 25.7641 102.087 26.0358C102.403 26.3076 102.938 26.5268 103.7 26.6846L106.672 27.2807C108.268 27.6051 109.46 28.1311 110.24 28.8587C111.02 29.5863 111.415 30.5419 111.415 31.7254C111.415 32.8037 111.099 33.7417 110.468 34.557C109.837 35.3723 108.978 36.0035 107.882 36.4506C106.786 36.9065 105.533 37.1257 104.104 37.1257C101.929 37.1257 100.202 36.6698 98.9137 35.7668C97.625 34.8551 96.8711 33.619 96.6519 32.0585L101.132 31.8218C101.263 32.4881 101.596 32.9878 102.114 33.3297C102.631 33.6716 103.297 33.8469 104.112 33.8469C104.91 33.8469 105.55 33.6891 106.041 33.3823C106.532 33.0755 106.777 32.6722 106.786 32.1813C106.777 31.7692 106.602 31.4273 106.26 31.1643C105.918 30.9013 105.392 30.6909 104.682 30.5507L101.842 29.9808C100.237 29.6565 99.0452 29.1042 98.265 28.3152C97.4848 27.5262 97.099 26.518 97.099 25.2907C97.099 24.2387 97.3883 23.3269 97.9582 22.5642C98.528 21.8015 99.3433 21.2142 100.387 20.8021C101.43 20.3901 102.657 20.1797 104.06 20.1797C106.129 20.1797 107.768 20.618 108.96 21.4947C110.126 22.3801 110.819 23.5724 111.02 25.0803Z" fill="#17191C"/>
<path d="M116.281 18.2861C115.606 18.2861 115.027 18.0582 114.545 17.6111C114.063 17.1552 113.826 16.6117 113.826 15.9805C113.826 15.3493 114.063 14.8145 114.545 14.3586C115.027 13.9028 115.606 13.6836 116.281 13.6836C116.956 13.6836 117.534 13.9115 118.017 14.3586C118.499 14.8145 118.736 15.3493 118.736 15.9805C118.736 16.6117 118.499 17.1552 118.017 17.6111C117.534 18.0669 116.956 18.2861 116.281 18.2861ZM113.993 36.8101V20.4076H118.543V36.8188H113.993V36.8101Z" fill="#17191C"/>
<path d="M126.459 27.3236V36.8091H121.909V20.4067H126.248V23.2997H126.441C126.8 22.3441 127.414 21.5902 128.265 21.0291C129.115 20.468 130.158 20.1875 131.377 20.1875C132.516 20.1875 133.507 20.433 134.357 20.9327C135.208 21.4324 135.865 22.1425 136.33 23.063C136.794 23.9835 137.031 25.0881 137.031 26.3592V36.8091H132.481V27.1745C132.49 26.1664 132.236 25.3861 131.71 24.8163C131.193 24.2465 130.474 23.9659 129.562 23.9659C128.948 23.9659 128.414 24.0974 127.94 24.3604C127.476 24.6234 127.107 25.0092 126.853 25.5089C126.599 26.0173 126.467 26.6222 126.459 27.3236Z" fill="#17191C"/>
<path d="M149.068 20.4089V23.8279H139.188V20.4089H149.068ZM141.432 16.4727H145.982V31.7705C145.982 32.1913 146.043 32.5157 146.175 32.7436C146.306 32.9715 146.481 33.1381 146.718 33.2258C146.946 33.3222 147.218 33.366 147.525 33.366C147.735 33.366 147.954 33.3485 148.165 33.3047C148.375 33.2696 148.542 33.2345 148.656 33.217L149.374 36.6009C149.146 36.6711 148.822 36.7587 148.41 36.8552C147.998 36.9516 147.498 37.013 146.902 37.0305C145.806 37.0743 144.842 36.9253 144.027 36.5922C143.203 36.259 142.563 35.7418 142.107 35.0317C141.651 34.3304 141.423 33.4362 141.432 32.3579V16.4727Z" fill="#17191C"/>
<path d="M156.651 27.3248V36.8103H152.101V14.9375H156.52V23.3009H156.713C157.081 22.3366 157.677 21.5739 158.51 21.0216C159.334 20.4693 160.368 20.1975 161.622 20.1975C162.762 20.1975 163.752 20.443 164.611 20.9427C165.462 21.4336 166.128 22.1437 166.601 23.0642C167.075 23.9847 167.311 25.0893 167.303 26.3692V36.8191H162.753V27.1758C162.762 26.1676 162.507 25.3786 161.99 24.8175C161.473 24.2565 160.754 23.9759 159.825 23.9759C159.202 23.9759 158.659 24.1074 158.185 24.3704C157.712 24.6334 157.344 25.0192 157.072 25.5189C156.791 26.0186 156.66 26.6235 156.651 27.3248Z" fill="#17191C"/>
<path d="M178.086 37.1335C176.394 37.1335 174.947 36.7916 173.729 36.099C172.519 35.4152 171.581 34.4333 170.923 33.1709C170.266 31.9085 169.941 30.4094 169.941 28.6824C169.941 26.9904 170.266 25.5089 170.923 24.2377C171.581 22.9665 172.501 21.9671 173.694 21.257C174.886 20.5469 176.288 20.1875 177.893 20.1875C178.971 20.1875 179.988 20.3628 180.917 20.7047C181.855 21.0466 182.671 21.5726 183.372 22.2564C184.073 22.949 184.617 23.8169 185.011 24.8601C185.406 25.9034 185.599 27.1219 185.599 28.5158V29.7695H171.747V26.9466H181.321C181.321 26.2891 181.18 25.7105 180.891 25.202C180.602 24.6936 180.216 24.2991 179.707 24.0098C179.208 23.7205 178.62 23.5802 177.963 23.5802C177.27 23.5802 176.665 23.738 176.131 24.0536C175.596 24.3692 175.184 24.79 174.886 25.3248C174.588 25.8595 174.43 26.4469 174.43 27.0956V29.7782C174.43 30.5935 174.579 31.2949 174.886 31.8822C175.193 32.4696 175.613 32.9255 176.175 33.2498C176.727 33.5742 177.384 33.732 178.147 33.732C178.655 33.732 179.111 33.6619 179.532 33.5216C179.953 33.3813 180.312 33.1622 180.61 32.8816C180.909 32.6011 181.136 32.2504 181.294 31.8384L185.502 32.1189C185.292 33.1271 184.854 34.0125 184.196 34.7665C183.539 35.5204 182.688 36.099 181.654 36.5198C180.637 36.9231 179.436 37.1335 178.086 37.1335Z" fill="#17191C"/>
<path d="M48.0319 38.9099L43.0612 40.9087L42.9385 40.9613C42.6842 41.0489 42.4037 41.1103 42.1144 41.1103H37.3453C36.9245 41.1103 36.5213 41.0226 36.1443 40.8648C35.5219 40.6018 34.9871 40.146 34.6364 39.5411L34.4436 39.2079L27.6494 27.4431L29.3326 24.5501C29.9901 23.4104 31.6382 23.4104 32.2957 24.5501L39.7649 37.4897C40.2559 38.34 41.1062 38.9011 42.0618 39.0326H42.0706C42.2021 39.0501 42.3424 39.0589 42.4826 39.0589H47.2517C47.5235 39.0501 47.7952 39.0063 48.0319 38.9099Z" fill="#006258"/>
<path d="M27.9469 10.0664C27.193 10.3995 26.5179 10.9781 26.0533 11.7759L25.9043 12.0301L17.0061 27.4595L12.351 35.5248C12.2458 35.7001 12.1757 35.8842 12.1231 36.0683V36.0771C11.7636 37.3395 12.5526 38.6808 13.8326 38.9876H13.8413C14.0167 39.0315 14.2008 39.049 14.3936 39.049H17.0236H19.1539C19.5046 39.049 19.8465 38.9876 20.1621 38.8824L15.2265 40.8637C14.8495 41.0215 14.4462 41.1092 14.0254 41.1092H9.25637C8.4849 41.1092 7.83617 40.7497 7.41537 40.2237C7.41537 40.2237 7.41537 40.2237 7.41537 40.215C6.8543 39.5049 6.70527 38.4967 7.21374 37.6025L20.9336 13.8273C21.4157 13.0032 22.1083 12.4334 22.8798 12.109L23.0025 12.0564L27.9469 10.0664Z" fill="#006258"/>
<path d="M46.8483 40.968C46.594 41.0644 46.331 41.1083 46.0505 41.1083H41.2814C41.1412 41.1083 41.0097 41.0995 40.8782 41.082H40.8694C39.9138 40.9592 39.0635 40.3894 38.5725 39.5478L31.1033 26.6082C30.4458 25.4773 28.8065 25.4685 28.149 26.5994L23.1783 35.2083L20.671 39.539C20.3028 40.1878 19.7154 40.6699 19.0316 40.9154L18.9703 40.9329C18.6459 41.0469 18.304 41.0995 17.9621 41.0995H15.8318H13.193C13.0002 41.0995 12.8161 41.082 12.6407 41.0381H12.632C12.3339 40.968 12.0621 40.8365 11.8167 40.6612C11.0452 40.1089 10.6507 39.0919 10.9225 38.1276V38.1188C10.9751 37.9347 11.0452 37.7506 11.1504 37.5753L15.8055 29.51L25.9047 12.0205L26.0537 11.7662C26.5184 10.9597 27.1846 10.3986 27.9386 10.0655C28.4646 9.82881 29.0432 9.71484 29.6218 9.71484C31.0069 9.71484 32.392 10.3986 33.181 11.775L36.8806 18.1747L48.0844 37.5841C48.8471 38.8991 48.172 40.4946 46.8483 40.968Z" fill="#CFE900"/>
<path d="M46.8487 40.9691C46.5945 41.0655 46.3315 41.1093 46.0509 41.1093H41.2819C41.1416 41.1093 41.0101 41.1006 40.8786 41.083H40.8698C39.9143 40.9603 39.0639 40.3905 38.573 39.5489L31.1038 26.6093C30.9021 26.2674 30.6128 26.0219 30.2885 25.8904C29.5433 25.5748 28.6053 25.8115 28.1406 26.6005L32.9711 18.2371C33.839 16.7468 35.978 16.7205 36.8722 18.1757L37.3106 18.9297C37.3106 18.9297 37.3193 18.9384 37.3193 18.9472L43.5963 29.8266L48.076 37.5764C48.8475 38.9001 48.1725 40.4957 46.8487 40.9691Z" fill="#799A07"/>
<path opacity="0.2" d="M37.3193 18.9267C36.6355 17.7783 34.9699 17.787 34.2948 18.9442L30.2885 25.8787C29.5433 25.5631 28.6053 25.7998 28.1406 26.5888L32.9711 18.2254C33.839 16.735 35.978 16.7087 36.8722 18.164L37.3193 18.9267Z" fill="#00002D"/>
<path opacity="0.15" d="M29.6218 9.71484L11.8167 40.6612C11.0452 40.1089 10.6507 39.0919 10.9225 38.1276V38.1188C10.9751 37.9347 11.0452 37.7506 11.1504 37.5753L15.8055 29.51L25.9047 12.0205L26.0537 11.7662C26.5184 10.9597 27.1846 10.3986 27.9386 10.0655C28.4733 9.82881 29.0519 9.71484 29.6218 9.71484Z" fill="white"/>
</svg>